<svg width="20" height="12" viewBox="0 0 20 12" fill="none" xmlns="http://www.w3.org/2000/svg">
<path d="M7.5635 11.2167L5.79342 10.7419L6.51484 8.04783C5.43497 7.64957 4.43136 7.06916 3.54759 6.33183L1.574 8.30633L0.27692 7.00925L2.25142 5.03567C1.13682 3.70078 0.387917 2.09936 0.0780029 0.388165L1.882 0.059082C2.57775 3.91092 5.94742 6.83325 10 6.83325C14.0517 6.83325 17.4223 3.91092 18.118 0.059082L19.922 0.387249C19.6125 2.09868 18.8639 3.70042 17.7495 5.03567L19.7231 7.00925L18.426 8.30633L16.4524 6.33183C15.5686 7.06916 14.565 7.64957 13.4852 8.04783L14.2066 10.7428L12.4365 11.2167L11.7142 8.52175C10.5797 8.71615 9.42035 8.71615 8.28584 8.52175L7.5635 11.2167Z" fill="#8DA2AD"/>
</svg>
