<svg width="20" height="18" viewBox="0 0 20 18" fill="none" xmlns="http://www.w3.org/2000/svg">
<path d="M9.99994 0.75C14.9426 0.75 19.0548 4.30667 19.9174 9C19.0557 13.6933 14.9426 17.25 9.99994 17.25C5.05727 17.25 0.945103 13.6933 0.0825195 9C0.944186 4.30667 5.05727 0.75 9.99994 0.75ZM9.99994 15.4167C11.8695 15.4163 13.6835 14.7813 15.1451 13.6156C16.6067 12.4499 17.6293 10.8226 18.0455 9C17.6277 7.17886 16.6045 5.55334 15.143 4.38919C13.6816 3.22504 11.8684 2.59115 9.99994 2.59115C8.13149 2.59115 6.31832 3.22504 4.85686 4.38919C3.39541 5.55334 2.37214 7.17886 1.95435 9C2.37061 10.8226 3.39322 12.4499 4.85482 13.6156C6.31642 14.7813 8.13042 15.4163 9.99994 15.4167ZM9.99994 13.125C8.90592 13.125 7.85671 12.6904 7.08312 11.9168C6.30953 11.1432 5.87494 10.094 5.87494 9C5.87494 7.90598 6.30953 6.85677 7.08312 6.08319C7.85671 5.3096 8.90592 4.875 9.99994 4.875C11.094 4.875 12.1432 5.3096 12.9168 6.08319C13.6903 6.85677 14.1249 7.90598 14.1249 9C14.1249 10.094 13.6903 11.1432 12.9168 11.9168C12.1432 12.6904 11.094 13.125 9.99994 13.125ZM9.99994 11.2917C10.6077 11.2917 11.1906 11.0502 11.6204 10.6205C12.0502 10.1907 12.2916 9.60779 12.2916 9C12.2916 8.39221 12.0502 7.80932 11.6204 7.37955C11.1906 6.94978 10.6077 6.70833 9.99994 6.70833C9.39215 6.70833 8.80925 6.94978 8.37948 7.37955C7.94971 7.80932 7.70827 8.39221 7.70827 9C7.70827 9.60779 7.94971 10.1907 8.37948 10.6205C8.80925 11.0502 9.39215 11.2917 9.99994 11.2917Z" fill="#8DA2AD"/>
</svg>
